{"glyphs":{":":{"x_min":0,"x_max":243,"ha":243,"o":"m 51 429 l 193 429 l 193 568 l 51 568 z m 51 87 l 193 87 l 193 226 l 51 226 z"},"$":{"x_min":0,"x_max":538,"ha":538,"o":"m 249 712 b 255 713 263 714 270 714 b 323 714 340 666 343 621 b 343 609 343 599 342 592 l 498 615 b 497 616 498 634 497 635 b 493 746 409 825 296 832 l 296 923 l 249 923 z m 296 147 b 292 146 286 146 280 146 b 202 146 195 243 195 294 l 42 264 b 46 142 106 41 249 27 l 249 -53 l 296 -53 z m 321 29 b 423 43 500 116 500 223 b 500 339 438 397 344 468 l 267 528 b 225 560 194 592 194 642 b 194 667 204 690 225 703 l 225 829 b 115 811 42 738 42 623 b 42 525 104 467 169 416 l 244 357 b 298 314 349 277 349 219 b 349 190 341 167 321 155 z"},"?":{"x_min":0,"x_max":464,"ha":464,"o":"m 219 886 b 89 881 21 797 21 678 b 21 653 25 610 32 583 l 166 605 b 161 621 159 653 159 668 b 159 717 181 754 219 761 z m 244 761 b 281 756 307 729 307 675 b 307 537 131 454 131 308 l 131 261 l 272 261 l 272 295 b 272 407 449 514 449 668 b 449 806 369 881 244 886 z m 128 0 l 275 0 l 275 143 l 128 143 z"},"<":{"x_min":0,"x_max":407,"ha":407,"o":"m 36 253 b 52 242 355 30 355 30 l 355 159 b 277 215 212 261 134 317 l 355 474 l 355 603 l 36 380 z"},"'":{"x_min":0,"x_max":176,"ha":176,"o":"m 55 609 l 124 609 b 127 625 154 853 157 869 l 23 869 z"},"=":{"x_min":0,"x_max":371,"ha":371,"o":"m 41 284 l 328 284 l 328 381 l 41 381 z m 41 125 l 328 125 l 328 222 l 41 222 z"},"a":{"x_min":0,"x_max":537,"ha":537,"o":"m 315 870 l 197 870 l 12 0 l 161 0 l 258 554 z m 281 544 l 323 285 l 234 285 l 221 195 l 334 195 l 372 0 l 525 0 l 340 870 z"},"L":{"x_min":0,"x_max":409,"ha":409,"o":"m 211 0 l 211 870 l 57 870 l 57 0 z m 235 0 l 399 0 l 399 108 l 235 108 z"},"3":{"x_min":0,"x_max":520,"ha":520,"o":"m 247 886 b 105 880 34 787 34 651 l 34 604 l 182 604 b 183 665 188 746 247 757 z m 247 114 b 188 125 183 203 182 267 l 34 267 l 34 241 b 37 101 83 -11 247 -16 z m 271 -16 b 430 -11 486 102 486 251 b 486 346 454 422 392 464 b 453 498 486 572 486 650 b 486 787 413 882 271 887 l 271 757 b 323 751 337 707 337 651 b 337 559 293 539 215 539 l 215 392 b 301 392 337 336 337 251 b 337 186 330 120 271 114 z"},";":{"x_min":0,"x_max":239,"ha":239,"o":"m 46 429 l 188 429 l 188 568 l 46 568 z m 77 -36 b 84 -37 90 -37 96 -37 b 183 -37 188 43 188 157 b 188 178 188 201 188 224 l 46 224 l 46 84 l 102 84 b 101 47 97 37 59 33 z"},"J":{"x_min":0,"x_max":299,"ha":299,"o":"m 1 -13 l 48 -13 b 215 -13 243 60 243 208 l 243 870 l 88 870 l 88 209 b 88 110 73 97 1 97 z"},"V":{"x_min":0,"x_max":514,"ha":514,"o":"m 243 365 l 162 870 l 13 870 l 180 0 z m 205 0 l 327 0 l 501 870 l 354 870 z"},"\"":{"x_min":0,"x_max":363,"ha":363,"o":"m 66 609 l 150 609 b 153 626 153 853 156 870 l 26 870 z m 210 609 l 292 609 b 295 626 334 853 337 870 l 210 870 z"},"7":{"x_min":0,"x_max":393,"ha":393,"o":"m 236 870 l 15 870 l 15 740 l 208 740 z m 75 0 l 208 0 l 382 790 l 382 870 l 261 870 z"},"S":{"x_min":0,"x_max":515,"ha":515,"o":"m 272 766 b 313 755 328 702 330 657 b 330 647 329 637 329 628 l 486 652 l 486 670 b 481 792 392 884 272 887 z m 254 104 b 200 119 188 199 185 272 l 30 241 b 39 112 106 -9 254 -17 z m 300 506 b 283 522 266 538 257 546 b 215 583 183 624 183 683 b 183 726 204 763 248 768 l 248 886 b 119 878 31 797 31 667 b 31 554 96 493 161 436 l 196 402 z m 213 386 l 233 368 b 286 319 339 254 339 182 b 339 138 323 105 278 102 l 278 -17 b 394 -13 489 66 489 188 b 489 315 420 395 335 473 l 317 489 z"},"}":{"x_min":0,"x_max":347,"ha":347,"o":"m 29 -30 b 220 -30 250 89 250 268 b 250 278 250 288 250 298 b 250 343 255 379 313 379 l 313 508 b 255 508 250 582 250 635 b 250 647 250 659 250 667 b 250 853 205 917 29 917 l 29 821 b 125 821 126 779 126 674 b 126 600 139 483 211 444 b 138 407 128 331 126 257 b 123 150 126 66 29 66 z"},"Z":{"x_min":0,"x_max":476,"ha":476,"o":"m 174 0 l 436 0 l 436 108 l 215 108 z m 298 870 l 65 870 l 65 762 l 257 762 z m 38 107 l 38 0 l 148 0 l 436 768 l 436 870 l 325 870 z"},"x":{"x_min":0,"x_max":526,"ha":526,"o":"m 153 422 l 2 0 l 147 0 l 229 229 z m 346 0 l 509 0 l 164 870 l 2 870 z m 354 459 l 492 870 l 344 870 l 275 655 z"},")":{"x_min":0,"x_max":323,"ha":323,"o":"m 43 -31 b 290 -31 273 304 273 468 b 273 642 268 918 43 918 l 43 819 b 138 819 147 647 147 527 b 147 495 147 467 147 448 b 147 426 148 394 148 357 b 148 235 137 67 43 67 z"},"&":{"x_min":0,"x_max":575,"ha":575,"o":"m 149 436 b 86 357 32 276 32 180 b 32 74 93 -10 210 -14 l 210 96 b 174 109 160 145 160 186 b 160 232 179 285 205 318 l 288 421 b 362 515 431 598 431 705 b 431 809 364 877 263 885 l 263 776 b 298 770 310 732 310 699 b 310 640 273 588 232 538 z m 389 61 l 448 -17 l 536 62 l 465 153 l 562 272 l 480 354 l 311 145 b 290 119 265 97 233 95 l 233 -14 b 294 -12 350 13 389 61 z m 221 564 b 204 609 197 648 197 692 b 197 722 204 768 239 776 l 239 886 b 128 884 66 800 66 693 b 66 629 103 534 138 461 z m 381 271 l 302 398 l 218 296 b 233 268 270 210 297 167 z"},"_":{"x_min":0,"x_max":414,"ha":414,"o":"m 15 0 l 396 0 l 396 97 l 15 97 z"},"v":{"x_min":0,"x_max":514,"ha":514,"o":"m 243 365 l 162 870 l 13 870 l 180 0 z m 205 0 l 327 0 l 501 870 l 354 870 z"},"O":{"x_min":0,"x_max":585,"ha":585,"o":"m 280 886 b 101 880 45 750 45 587 l 45 279 b 45 119 102 -11 280 -16 l 280 104 b 213 111 199 182 199 244 l 199 625 b 199 687 213 758 280 766 z m 304 766 b 371 758 385 688 385 625 l 385 244 b 385 181 372 111 304 104 l 304 -16 b 483 -10 540 123 540 282 l 540 587 b 540 750 483 880 304 886 z"},"(":{"x_min":0,"x_max":322,"ha":322,"o":"m 301 67 b 207 67 196 235 196 357 b 196 394 197 426 197 448 b 197 468 196 497 196 529 b 196 649 207 819 301 819 l 301 918 b 52 918 72 577 72 414 b 72 240 78 -31 301 -31 z"},"C":{"x_min":0,"x_max":562,"ha":562,"o":"m 303 -16 b 476 -10 524 126 526 277 l 526 344 l 375 344 l 375 261 b 375 189 365 113 303 104 z m 303 765 b 366 756 375 679 375 609 l 375 535 l 526 535 l 526 602 b 526 761 468 880 303 886 z m 278 886 b 100 880 45 750 45 587 l 45 282 b 45 123 99 -10 278 -16 l 278 104 b 212 111 199 183 199 245 l 199 625 b 199 687 212 758 278 766 z"},"W":{"x_min":0,"x_max":720,"ha":720,"o":"m 579 0 l 705 870 l 571 870 l 516 415 z m 204 416 l 149 870 l 16 870 l 143 0 l 269 0 z m 439 0 l 555 0 l 490 415 l 421 870 l 304 870 z m 289 805 l 229 416 l 286 47 l 342 471 z"},"A":{"x_min":0,"x_max":537,"ha":537,"o":"m 279 554 l 376 0 l 525 0 l 340 870 l 222 870 z m 197 870 l 12 0 l 165 0 l 203 195 l 316 195 l 303 285 l 214 285 l 256 544 z"},"f":{"x_min":0,"x_max":411,"ha":411,"o":"m 211 0 l 211 870 l 57 870 l 57 0 z m 235 762 l 407 762 l 407 870 l 235 870 z m 235 396 l 350 396 l 350 505 l 235 505 z"},"Q":{"x_min":0,"x_max":588,"ha":588,"o":"m 281 104 b 215 113 199 182 199 245 l 199 625 b 199 687 215 757 281 765 l 281 886 b 102 880 45 750 45 587 l 45 279 b 45 112 112 -12 281 -17 z m 305 -17 b 318 -17 332 -15 344 -13 b 375 -57 424 -110 529 -112 l 529 -16 b 514 -14 458 -9 439 22 b 518 84 542 184 542 282 l 542 587 b 542 751 486 882 305 886 l 305 766 b 374 759 388 688 388 625 l 388 245 b 388 180 376 109 305 104 z"},"w":{"x_min":0,"x_max":720,"ha":720,"o":"m 579 0 l 705 870 l 571 870 l 516 415 z m 204 416 l 149 870 l 16 870 l 143 0 l 269 0 z m 286 47 l 360 612 l 442 0 l 555 0 l 490 415 l 421 870 l 298 870 l 229 416 z"},"-":{"x_min":0,"x_max":221,"ha":221,"o":"m 14 221 l 207 221 l 207 318 l 14 318 z"},"E":{"x_min":0,"x_max":425,"ha":425,"o":"m 211 0 l 211 870 l 57 870 l 57 0 z m 235 0 l 407 0 l 407 108 l 235 108 z m 235 762 l 407 762 l 407 870 l 235 870 z m 235 396 l 350 396 l 350 505 l 235 505 z"},"s":{"x_min":0,"x_max":515,"ha":515,"o":"m 272 766 b 313 755 328 702 330 657 b 330 647 329 637 329 628 l 486 652 l 486 670 b 481 792 392 884 272 887 z m 254 104 b 200 119 188 199 185 272 l 30 241 b 39 112 106 -9 254 -17 z m 300 506 b 283 522 266 538 257 546 b 215 583 183 624 183 683 b 183 726 204 763 248 768 l 248 886 b 119 878 31 797 31 667 b 31 554 96 493 161 436 l 196 402 z m 213 386 l 233 368 b 286 319 339 254 339 182 b 339 138 323 105 278 102 l 278 -17 b 394 -13 489 66 489 188 b 489 315 420 395 335 473 l 317 489 z"},">":{"x_min":0,"x_max":407,"ha":407,"o":"m 55 30 l 373 253 l 373 380 b 357 391 55 604 55 604 l 55 474 b 77 458 253 333 275 317 l 55 159 z"},"l":{"x_min":0,"x_max":409,"ha":409,"o":"m 211 0 l 211 870 l 57 870 l 57 0 z m 235 0 l 399 0 l 399 108 l 235 108 z"},"8":{"x_min":0,"x_max":534,"ha":534,"o":"m 259 106 b 197 113 189 178 189 243 b 189 304 200 384 259 396 l 259 515 b 208 527 201 605 201 662 b 201 709 213 761 259 768 l 259 887 b 118 882 53 786 53 650 b 53 573 77 503 128 460 b 66 415 44 346 44 250 b 44 99 99 -10 259 -15 z m 283 -15 b 443 -9 499 99 499 250 b 499 346 475 415 414 460 b 466 503 489 573 489 650 b 489 786 425 882 283 887 l 283 768 b 330 761 341 708 341 662 b 341 605 335 526 283 515 l 283 396 b 343 385 353 304 353 243 b 353 178 344 113 283 106 z"},"\\":{"x_min":0,"x_max":308,"ha":308,"o":"m 160 0 l 285 0 l 149 887 l 24 887 z"},"e":{"x_min":0,"x_max":425,"ha":425,"o":"m 211 0 l 211 870 l 57 870 l 57 0 z m 235 0 l 407 0 l 407 108 l 235 108 z m 235 762 l 407 762 l 407 870 l 235 870 z m 235 396 l 350 396 l 350 505 l 235 505 z"},"b":{"x_min":0,"x_max":544,"ha":544,"o":"m 235 418 l 254 418 b 338 418 361 353 361 267 b 361 165 346 110 254 110 l 235 110 l 235 0 l 269 0 b 439 0 511 90 511 257 b 511 358 473 446 366 475 b 448 504 489 559 489 646 b 489 817 388 870 237 870 l 235 870 l 235 765 l 240 765 b 308 765 346 750 346 649 b 346 580 330 521 260 521 l 235 521 z m 211 0 l 211 870 l 57 870 l 57 0 z"},"%":{"x_min":0,"x_max":911,"ha":911,"o":"m 274 0 l 355 0 l 634 884 l 553 884 z m 712 388 b 752 379 756 327 756 254 l 756 228 b 756 155 751 98 712 88 l 712 -2 b 831 4 871 100 871 227 l 871 256 b 871 386 830 473 712 479 z m 688 88 b 649 98 643 155 643 228 l 643 255 b 643 327 648 380 688 388 l 688 479 b 570 473 529 386 529 256 l 529 227 b 529 100 569 4 688 -2 z m 224 779 b 264 771 268 718 268 646 l 268 619 b 268 547 263 490 224 480 l 224 389 b 342 396 383 491 383 619 l 383 648 b 383 778 341 865 224 871 z m 199 480 b 161 490 154 547 154 619 l 154 646 b 154 719 160 771 200 780 l 199 871 b 82 865 41 777 41 648 l 41 619 b 41 491 81 396 199 389 z"},"m":{"x_min":0,"x_max":741,"ha":741,"o":"m 530 870 l 371 219 l 209 870 l 201 870 l 201 425 l 329 0 l 412 0 l 541 425 l 541 870 z m 176 0 l 176 870 l 57 870 l 57 0 z m 685 0 l 685 870 l 565 870 l 565 0 z"},"#":{"x_min":0,"x_max":547,"ha":547,"o":"m 60 0 l 154 0 l 208 306 l 281 306 l 228 0 l 322 0 l 375 306 l 487 306 l 487 416 l 394 416 l 407 485 l 493 485 l 493 594 l 424 594 l 473 871 l 378 871 l 330 594 l 257 594 l 305 871 l 210 871 l 162 594 l 48 594 l 48 485 l 145 485 l 131 416 l 43 416 l 43 306 l 114 306 z m 226 416 l 239 485 l 312 485 l 299 416 z"},",":{"x_min":0,"x_max":220,"ha":220,"o":"m 76 -121 b 82 -122 88 -122 94 -122 b 180 -122 187 -42 187 68 b 187 91 187 115 187 140 l 44 140 l 44 0 l 100 0 b 99 -38 95 -48 57 -51 z"},"n":{"x_min":0,"x_max":578,"ha":578,"o":"m 57 871 l 57 0 l 189 0 l 189 820 l 168 871 z m 413 0 l 521 0 l 521 871 l 393 871 l 393 51 z m 214 463 l 368 113 l 368 424 l 214 761 z"},"h":{"x_min":0,"x_max":580,"ha":580,"o":"m 368 870 l 368 494 l 235 494 l 235 396 l 368 396 l 368 0 l 523 0 l 523 870 z m 211 870 l 57 870 l 57 0 l 211 0 z"},"z":{"x_min":0,"x_max":476,"ha":476,"o":"m 174 0 l 436 0 l 436 108 l 215 108 z m 298 870 l 65 870 l 65 762 l 257 762 z m 38 107 l 38 0 l 148 0 l 436 768 l 436 870 l 325 870 z"},"B":{"x_min":0,"x_max":544,"ha":544,"o":"m 235 418 l 254 418 b 338 418 361 353 361 267 b 361 165 346 110 254 110 l 235 110 l 235 0 l 269 0 b 439 0 511 90 511 257 b 511 358 473 446 366 475 b 448 504 489 559 489 646 b 489 817 388 870 237 870 l 235 870 l 235 765 l 240 765 b 308 765 346 750 346 649 b 346 580 330 521 260 521 l 235 521 z m 211 0 l 211 870 l 57 870 l 57 0 z"},"K":{"x_min":0,"x_max":560,"ha":560,"o":"m 235 418 l 398 0 l 559 0 l 362 479 l 540 870 l 368 870 l 235 534 z m 211 0 l 211 870 l 57 870 l 57 0 z"},"R":{"x_min":0,"x_max":546,"ha":546,"o":"m 235 406 l 270 406 l 371 0 l 529 0 l 405 427 b 510 473 515 563 515 642 b 515 801 421 870 257 870 l 235 870 l 235 756 l 291 756 b 351 756 361 675 361 631 b 361 588 350 503 284 503 l 235 503 z m 211 0 l 211 870 l 57 870 l 57 0 z"},"T":{"x_min":0,"x_max":432,"ha":432,"o":"m 139 729 l 139 0 l 294 0 l 294 729 z m 2 754 l 429 754 l 429 870 l 2 870 z"},"P":{"x_min":0,"x_max":502,"ha":502,"o":"m 211 870 l 57 870 l 57 0 l 211 0 z m 235 759 l 211 759 b 326 759 334 708 334 629 b 334 532 327 486 248 486 l 235 486 l 235 375 l 241 375 b 399 376 482 443 482 626 b 482 774 424 870 268 870 l 235 870 z"},"|":{"x_min":0,"x_max":208,"ha":208,"o":"m 67 -63 l 164 -63 l 164 938 l 67 938 z"},"t":{"x_min":0,"x_max":432,"ha":432,"o":"m 139 729 l 139 0 l 294 0 l 294 729 z m 2 754 l 429 754 l 429 870 l 2 870 z"},"M":{"x_min":0,"x_max":741,"ha":741,"o":"m 209 870 l 201 870 l 201 425 l 320 0 l 425 0 z m 433 69 l 541 425 l 541 870 l 530 870 l 383 274 z m 176 0 l 176 870 l 57 870 l 57 0 z m 685 0 l 685 870 l 565 870 l 565 0 z"},"g":{"x_min":0,"x_max":591,"ha":591,"o":"m 307 766 b 381 758 388 675 388 604 l 388 555 l 537 555 l 537 596 b 537 758 479 881 307 886 z m 304 -12 b 352 -2 395 26 417 66 l 440 0 l 542 0 l 542 441 l 325 441 l 325 329 l 388 329 l 388 243 b 388 185 375 110 304 104 z m 280 104 b 213 113 199 181 199 239 l 199 627 b 199 688 215 757 282 765 l 282 886 b 101 879 45 749 45 586 l 45 266 b 45 143 94 -16 268 -16 b 272 -16 276 -16 280 -16 z"},"j":{"x_min":0,"x_max":299,"ha":299,"o":"m 1 -13 l 48 -13 b 215 -13 243 60 243 208 l 243 870 l 88 870 l 88 209 b 88 110 73 97 1 97 z"},"i":{"x_min":0,"x_max":268,"ha":268,"o":"m 56 0 l 211 0 l 211 870 l 56 870 z"},"y":{"x_min":0,"x_max":489,"ha":489,"o":"m 319 166 l 143 870 l 1 870 l 169 284 l 169 0 l 319 0 z m 319 267 l 488 870 l 319 870 l 258 514 z"},"@":{"x_min":0,"x_max":812,"ha":812,"o":"m 612 161 b 724 167 777 273 777 397 b 777 631 662 782 442 795 l 442 697 b 597 684 652 576 652 396 b 652 349 644 281 612 267 z m 587 266 b 568 271 566 292 566 311 b 566 314 566 318 566 321 l 566 606 l 442 606 l 442 281 l 478 192 b 511 164 556 161 587 161 z m 432 54 b 240 62 165 181 165 394 b 165 588 262 698 417 698 l 417 796 b 183 796 40 637 40 395 b 40 108 158 -37 432 -44 z m 417 599 b 404 606 387 610 372 610 b 261 610 225 471 225 363 b 225 272 272 161 381 161 b 405 161 433 164 457 173 l 417 267 b 412 266 407 265 402 265 b 357 265 350 319 350 368 b 350 423 351 510 412 510 b 414 510 416 510 417 510 z"},".":{"x_min":0,"x_max":241,"ha":241,"o":"m 50 0 l 193 0 l 193 140 l 50 140 z"},"p":{"x_min":0,"x_max":502,"ha":502,"o":"m 211 870 l 57 870 l 57 0 l 211 0 z m 235 759 l 211 759 b 326 759 334 708 334 629 b 334 532 327 486 248 486 l 235 486 l 235 375 l 241 375 b 399 376 482 443 482 626 b 482 774 424 870 268 870 l 235 870 z"},"X":{"x_min":0,"x_max":526,"ha":526,"o":"m 153 422 l 2 0 l 147 0 l 229 229 z m 346 0 l 509 0 l 164 870 l 2 870 z m 354 459 l 492 870 l 344 870 l 275 655 z"},"*":{"x_min":0,"x_max":429,"ha":429,"o":"m 295 425 l 379 475 l 299 589 l 420 636 l 388 720 l 276 662 l 289 795 l 167 795 l 179 662 l 67 720 l 35 636 l 156 589 l 76 475 l 160 425 l 230 539 z"},"Y":{"x_min":0,"x_max":489,"ha":489,"o":"m 319 166 l 143 870 l 1 870 l 169 284 l 169 0 l 319 0 z m 319 267 l 488 870 l 319 870 l 258 514 z"},"c":{"x_min":0,"x_max":562,"ha":562,"o":"m 303 -16 b 476 -10 524 126 526 277 l 526 344 l 375 344 l 375 261 b 375 189 365 113 303 104 z m 303 765 b 366 756 375 679 375 609 l 375 535 l 526 535 l 526 602 b 526 761 468 880 303 886 z m 278 886 b 100 880 45 750 45 587 l 45 282 b 45 123 99 -10 278 -16 l 278 104 b 212 111 199 183 199 245 l 199 625 b 199 687 212 758 278 766 z"},"!":{"x_min":0,"x_max":246,"ha":246,"o":"m 97 217 l 147 217 l 200 870 l 49 870 z m 51 0 l 194 0 l 194 140 l 51 140 z"},"/":{"x_min":0,"x_max":411,"ha":411,"o":"m 31 0 l 115 0 l 395 884 l 311 884 z"},"[":{"x_min":0,"x_max":349,"ha":349,"o":"m 201 917 l 76 917 l 76 -31 l 201 -31 z m 226 -31 l 319 -31 l 319 38 l 226 38 z m 226 849 l 319 849 l 319 917 l 226 917 z"},"6":{"x_min":0,"x_max":532,"ha":532,"o":"m 196 584 b 196 659 206 747 261 756 l 261 886 b 93 879 46 729 46 587 l 46 262 b 46 124 107 -8 261 -14 l 261 114 b 208 123 196 191 196 255 z m 220 399 b 235 408 254 414 273 414 b 342 414 352 341 352 272 b 352 210 346 124 285 114 l 285 -14 b 442 -6 501 132 501 276 b 501 417 458 538 300 538 b 272 538 245 533 220 523 z m 285 756 b 331 746 341 688 341 627 l 485 627 l 485 643 b 485 773 421 879 285 886 z"},"r":{"x_min":0,"x_max":546,"ha":546,"o":"m 235 406 l 270 406 l 371 0 l 529 0 l 405 427 b 510 473 515 563 515 642 b 515 801 421 870 257 870 l 235 870 l 235 756 l 291 756 b 351 756 361 675 361 631 b 361 588 350 503 284 503 l 235 503 z m 211 0 l 211 870 l 57 870 l 57 0 z"},"2":{"x_min":0,"x_max":510,"ha":510,"o":"m 230 162 b 267 215 342 326 380 384 b 435 460 482 551 482 646 b 482 788 408 881 270 886 l 270 757 b 316 749 334 694 334 646 b 334 574 291 499 251 441 l 23 107 l 23 0 l 110 0 z m 246 886 b 91 881 31 771 31 619 l 31 574 l 179 574 b 179 631 176 745 246 757 z m 141 0 l 479 0 l 479 145 l 248 145 z"},"{":{"x_min":0,"x_max":346,"ha":346,"o":"m 314 66 b 213 66 221 157 217 267 b 214 337 203 409 133 444 b 205 485 218 599 218 674 b 218 779 218 821 314 821 l 314 917 b 139 917 94 852 94 667 b 94 659 94 647 94 635 b 94 582 88 508 30 508 l 30 379 b 89 379 94 343 94 298 b 94 288 94 278 94 268 b 94 90 124 -30 314 -30 z"},"9":{"x_min":0,"x_max":541,"ha":541,"o":"m 348 615 l 348 304 b 348 238 345 126 285 114 l 285 -14 b 452 -5 497 150 497 298 l 497 594 b 497 738 436 878 285 886 l 285 756 b 335 746 348 679 348 615 z m 324 470 b 308 461 288 455 270 455 b 200 455 192 533 192 601 b 192 665 199 749 260 757 l 260 886 b 102 880 42 739 42 594 b 42 454 87 333 246 333 b 274 333 300 337 324 346 z m 260 114 b 208 122 200 182 199 243 l 54 243 l 54 229 b 58 96 119 -9 260 -14 z"}," ":{"x_min":0,"x_max":142,"ha":142,"o":""},"I":{"x_min":0,"x_max":268,"ha":268,"o":"m 56 0 l 211 0 l 211 870 l 56 870 z"},"H":{"x_min":0,"x_max":580,"ha":580,"o":"m 368 870 l 368 494 l 235 494 l 235 396 l 368 396 l 368 0 l 523 0 l 523 870 z m 211 870 l 57 870 l 57 0 l 211 0 z"},"4":{"x_min":0,"x_max":516,"ha":516,"o":"m 272 574 l 272 0 l 420 0 l 420 870 l 377 870 z m 248 340 l 163 340 l 352 870 l 239 870 l 29 340 l 29 221 l 248 221 z m 444 221 l 502 221 l 502 340 l 444 340 z"},"~":{"x_min":0,"x_max":479,"ha":479,"o":"m 145 424 b 146 439 148 457 165 457 b 196 457 251 415 304 415 b 386 415 412 491 412 552 l 331 552 b 330 537 326 519 310 519 b 274 519 222 560 171 560 b 91 560 63 489 63 424 z"},"D":{"x_min":0,"x_max":561,"ha":561,"o":"m 235 0 l 240 0 b 474 0 516 104 516 293 l 516 593 b 516 779 460 870 241 870 l 235 870 l 235 760 l 242 760 b 325 759 361 734 361 665 l 361 213 b 361 132 335 110 240 110 l 235 110 z m 211 0 l 211 870 l 57 870 l 57 0 z"},"^":{"x_min":0,"x_max":445,"ha":445,"o":"m 159 442 l 221 616 l 221 715 l 157 715 b 157 715 37 456 29 442 z m 437 442 b 429 456 309 715 309 715 l 245 715 l 245 616 l 307 442 z"},"0":{"x_min":0,"x_max":549,"ha":549,"o":"m 265 113 b 206 121 196 198 196 251 l 196 618 b 196 672 203 749 265 756 l 265 886 b 108 881 46 761 46 614 l 46 255 b 46 111 110 -12 265 -16 z m 289 -16 b 438 -8 503 113 503 255 l 503 614 b 503 760 442 879 289 885 l 289 755 b 346 745 354 671 354 618 l 354 251 b 354 199 344 125 289 114 z"},"F":{"x_min":0,"x_max":411,"ha":411,"o":"m 211 0 l 211 870 l 57 870 l 57 0 z m 235 762 l 407 762 l 407 870 l 235 870 z m 235 396 l 350 396 l 350 505 l 235 505 z"},"`":{"x_min":0,"x_max":291,"ha":291,"o":"m 119 850 l -30 850 l 149 673 l 252 673 z"},"k":{"x_min":0,"x_max":560,"ha":560,"o":"m 235 418 l 398 0 l 559 0 l 362 479 l 540 870 l 368 870 l 235 534 z m 211 0 l 211 870 l 57 870 l 57 0 z"},"u":{"x_min":0,"x_max":597,"ha":597,"o":"m 312 -16 b 514 -12 545 135 545 300 l 545 870 l 391 870 l 391 300 b 391 170 388 108 312 104 z m 288 104 b 216 111 207 173 207 300 l 207 870 l 52 870 l 52 300 b 52 136 86 -11 288 -16 z"},"]":{"x_min":0,"x_max":331,"ha":331,"o":"m 148 -31 l 262 -31 l 262 898 l 148 898 z m 123 898 l 32 898 l 32 840 l 123 840 z m 123 26 l 32 26 l 32 -31 l 123 -31 z"},"U":{"x_min":0,"x_max":597,"ha":597,"o":"m 312 -16 b 514 -12 545 135 545 300 l 545 870 l 391 870 l 391 300 b 391 170 388 108 312 104 z m 288 104 b 216 111 207 173 207 300 l 207 870 l 52 870 l 52 300 b 52 136 86 -11 288 -16 z"},"o":{"x_min":0,"x_max":585,"ha":585,"o":"m 280 886 b 101 880 45 750 45 587 l 45 279 b 45 119 102 -11 280 -16 l 280 104 b 213 111 199 182 199 244 l 199 625 b 199 687 213 758 280 766 z m 304 766 b 371 758 385 688 385 625 l 385 244 b 385 181 372 111 304 104 l 304 -16 b 483 -10 540 123 540 282 l 540 587 b 540 750 483 880 304 886 z"},"N":{"x_min":0,"x_max":578,"ha":578,"o":"m 57 871 l 57 0 l 189 0 l 189 820 l 168 871 z m 413 0 l 521 0 l 521 871 l 393 871 l 393 51 z m 214 463 l 368 113 l 368 424 l 214 761 z"},"+":{"x_min":0,"x_max":360,"ha":360,"o":"m 28 296 l 114 296 l 114 210 l 205 210 l 205 296 l 292 296 l 292 369 l 205 369 l 205 455 l 114 455 l 114 369 l 28 369 z"},"G":{"x_min":0,"x_max":591,"ha":591,"o":"m 307 766 b 381 758 388 675 388 604 l 388 555 l 537 555 l 537 596 b 537 758 479 881 307 886 z m 304 -12 b 352 -2 395 26 417 66 l 440 0 l 542 0 l 542 441 l 325 441 l 325 329 l 388 329 l 388 243 b 388 185 375 110 304 104 z m 280 104 b 213 113 199 181 199 239 l 199 627 b 199 688 215 757 282 765 l 282 886 b 101 879 45 749 45 586 l 45 266 b 45 143 94 -16 268 -16 b 272 -16 276 -16 280 -16 z"},"q":{"x_min":0,"x_max":588,"ha":588,"o":"m 281 104 b 215 113 199 182 199 245 l 199 625 b 199 687 215 757 281 765 l 281 886 b 102 880 45 750 45 587 l 45 279 b 45 112 112 -12 281 -17 z m 305 -17 b 318 -17 332 -15 344 -13 b 375 -57 424 -110 529 -112 l 529 -16 b 514 -14 458 -9 439 22 b 518 84 542 184 542 282 l 542 587 b 542 751 486 882 305 886 l 305 766 b 374 759 388 688 388 625 l 388 245 b 388 180 376 109 305 104 z"},"d":{"x_min":0,"x_max":561,"ha":561,"o":"m 235 0 l 240 0 b 474 0 516 104 516 293 l 516 593 b 516 779 460 870 241 870 l 235 870 l 235 760 l 242 760 b 325 759 361 734 361 665 l 361 213 b 361 132 335 110 240 110 l 235 110 z m 211 0 l 211 870 l 57 870 l 57 0 z"},"1":{"x_min":0,"x_max":314,"ha":314,"o":"m 86 816 b 61 795 31 781 1 769 l 1 652 l 87 661 z m 111 0 l 258 0 l 258 871 l 146 871 b 134 851 125 838 110 827 z"},"5":{"x_min":0,"x_max":534,"ha":534,"o":"m 231 728 l 468 728 l 468 870 l 231 870 z m 231 424 b 245 437 261 445 279 445 b 345 445 355 371 355 301 b 355 226 353 123 285 110 l 285 -16 b 460 -11 501 143 501 300 b 501 439 458 567 304 567 b 278 567 253 560 231 548 z m 71 870 l 71 376 l 207 376 l 207 870 z m 260 109 b 210 116 204 174 204 265 l 56 264 b 56 112 101 -7 260 -16 z"}}}
